# xmcd
#
# Track frame offsets:
#	150
#	19758
#	34059
#	47361
#	65088
#	86048
#	103736
#	123411
#	141509
#	160228
#	184566
#	196555
#	214588
#
# Disc length: 2899 seconds
#
# Revision: 1
# Processed by: cddbd v1.5.2PL0 Copyright (c) Steve Scherf et al.
# Submitted via: audiograbber 1.83.01
#
DISCID=af0b510d
DTITLE=Artie Tobia - Driven
DYEAR=2018
DGENRE=Country
TTITLE0=Black Mustang
TTITLE1=Free Angel
TTITLE2=Cowboy On A Train
TTITLE3=What I Dream About
TTITLE4=Shine On Baby
TTITLE5=Still Haunts Me
TTITLE6=Heart Beats Still
TTITLE7=Ghosts Of Carolina
TTITLE8=Lucky Charm
TTITLE9=Devils Roulette
TTITLE10=Caller 102
TTITLE11=Phoenix
TTITLE12=Phoenix Out Take Ooom Ba Pa Room
EXTD=
EXTT0=
EXTT1=
EXTT2=
EXTT3=
EXTT4=
EXTT5=
EXTT6=
EXTT7=
EXTT8=
EXTT9=
EXTT10=
EXTT11=
EXTT12=
PLAYORDER=
